<svg version="1.0" xmlns="http://www.w3.org/2000/svg" width="100.000000pt" height="100.000000pt" viewBox="0 0 300.000000 300.000000" preserveAspectRatio="xMidYMid meet">
  <g transform="translate(0.000000,300.000000) scale(0.100000,-0.100000)" fill="#0B0B0B" stroke="none">
    <path class="node" id="node1" d="M953 2878 c-48 -75 -97 -201 -118 -308 -4 -19 -14 -44 -21 -55 -28
-39 -17 -105 48 -305 11 -36 22 -90 23 -121 2 -46 9 -68 38 -115 21 -32 37
-62 37 -66 0 -5 11 -26 24 -47 19 -30 51 -53 138 -101 134 -75 168 -98 168
-112 0 -15 -133 -4 -189 17 -48 17 -118 21 -167 10 -24 -5 -44 0 -91 25 -39
20 -84 35 -127 40 -72 9 -146 40 -237 100 -55 37 -115 62 -173 75 -36 8 -95
71 -173 184 -71 102 -119 158 -128 149 -7 -7 29 -104 65 -173 29 -57 101 -137
156 -173 26 -18 56 -46 68 -63 19 -28 116 -79 150 -79 44 0 226 -72 266 -106
8 -6 47 -15 85 -19 75 -8 95 -15 138 -51 27 -23 36 -24 173 -24 123 0 146 -2
151 -16 3 -10 -4 -26 -20 -41 -19 -19 -51 -31 -133 -50 -60 -13 -128 -34 -151
-46 -23 -12 -100 -52 -172 -89 -104 -54 -132 -73 -137 -93 -3 -14 -30 -55 -60
-93 -51 -63 -182 -307 -172 -318 3 -2 53 56 112 131 59 74 137 166 174 203 78
79 196 151 258 157 24 2 77 21 119 40 42 20 79 34 83 31 10 -11 -70 -86 -172
-162 -54 -40 -108 -88 -120 -106 -23 -34 -51 -133 -85 -303 -32 -160 -35 -208
-17 -246 8 -19 22 -61 29 -95 18 -78 88 -218 175 -351 59 -92 59 -65 -1 97
-120 321 -120 321 -109 343 21 44 22 61 12 141 -15 121 12 251 81 386 10 20
109 110 121 110 2 0 3 -66 3 -147 1 -141 2 -151 28 -200 31 -60 132 -172 193
-214 109 -75 300 -76 407 -2 57 39 136 120 182 188 l40 57 0 159 c0 88 4 159
8 159 9 0 59 -44 103 -88 29 -30 70 -134 90 -225 12 -54 14 -100 9 -185 -6
-95 -4 -116 9 -137 15 -23 15 -28 -3 -73 -11 -26 -33 -85 -51 -132 -17 -47
-35 -94 -39 -105 -18 -40 -61 -166 -61 -177 0 -34 81 91 169 260 50 97 85 224
85 313 0 129 -72 423 -118 483 -13 18 -56 54 -94 79 -71 49 -197 165 -188 175
3 2 34 -9 70 -26 70 -33 145 -57 154 -48 6 6 58 -22 157 -86 62 -39 170 -158
301 -331 37 -48 69 -85 72 -83 11 12 -133 276 -183 336 -30 35 -55 72 -55 81
0 23 -9 29 -148 99 -67 34 -122 66 -122 70 0 11 -83 38 -204 66 -80 18 -106
29 -124 50 -13 14 -21 31 -19 38 2 7 54 13 153 16 145 5 150 6 186 33 29 22
56 32 114 40 57 8 92 19 132 43 30 18 84 42 121 53 36 10 98 29 138 40 71 21
133 61 133 85 0 7 11 18 23 23 43 20 146 124 180 181 41 69 81 166 75 184 -6
18 -48 -29 -116 -130 -77 -115 -160 -202 -193 -202 -32 0 -106 -32 -174 -74
-27 -18 -59 -37 -70 -44 -50 -30 -95 -45 -157 -52 -45 -5 -88 -18 -130 -40
-59 -31 -65 -32 -108 -21 -39 10 -58 8 -145 -14 -55 -14 -119 -25 -143 -25
-73 0 -50 27 83 98 140 74 158 89 195 162 15 30 40 73 55 94 19 28 25 47 21
66 -3 15 1 49 9 76 63 226 75 275 75 321 0 28 -4 54 -9 57 -5 3 -14 30 -21 58
-23 100 -61 203 -102 275 -23 40 -44 71 -46 68 -3 -2 16 -67 42 -143 57 -171
64 -215 42 -266 -9 -21 -21 -89 -26 -151 -16 -181 -21 -199 -76 -250 -28 -27
-34 -40 -40 -95 -9 -81 -13 -86 -196 -213 -53 -37 -101 -67 -106 -67 -5 0 -12
28 -15 62 -4 48 -11 67 -27 80 -30 24 -65 23 -92 -4 -17 -17 -24 -19 -37 -9
-81 58 -134 27 -135 -79 -1 -28 -5 -50 -9 -50 -13 0 -146 90 -242 163 -58 45
-63 55 -64 121 -1 44 -5 53 -41 87 -47 45 -66 109 -76 259 -3 53 -14 119 -25
148 -11 31 -17 64 -13 80 9 39 41 143 75 241 16 46 28 86 25 88 -2 3 -17 -15
-33 -39z"></path>
  </g>
  <g transform="translate(0.000000,300.000000) scale(0.100000,-0.100000)" fill="#A1A1A1" stroke="none"></g>
</svg>
